<?xml version="1.0" encoding="UTF-8" standalone="no"?>
<svg width="512" height="512" viewBox="0 0 512 512" fill="none" xmlns="http://www.w3.org/2000/svg">
  <rect width="512" height="512" rx="128" fill="url(#paint0_linear)" />
  <path d="M318.975 341.076C318.975 368.076 298.975 386.076 256.975 386.076C214.975 386.076 190.975 368.076 186.975 334.076L230.975 328.076C232.975 344.076 242.975 352.076 256.975 352.076C270.975 352.076 278.975 346.076 278.975 336.076C278.975 316.076 186.975 326.076 186.975 258.076C186.975 232.076 206.975 214.076 246.975 214.076C286.975 214.076 308.975 232.076 312.975 266.076L268.975 272.076C266.975 256.076 258.975 248.076 246.975 248.076C234.975 248.076 226.975 254.076 226.975 264.076C226.975 284.076 318.975 274.076 318.975 341.076Z" fill="white" />
  <defs>
    <linearGradient id="paint0_linear" x1="0" y1="0" x2="512" y2="512" gradientUnits="userSpaceOnUse">
      <stop stop-color="#6D28D9" />
      <stop offset="1" stop-color="#4F46E5" />
    </linearGradient>
  </defs>
</svg>
